# MagicaVoxel @ Ephtracy

# group
o 

# material
mtllib shoot.mtl
usemtl palette

# normals
vn -1 0 0
vn 1 0 0
vn 0 0 1
vn 0 0 -1
vn 0 -1 0
vn 0 1 0

# texcoords
vt 0.306641 0.5

# verts
v 1.6 2.3 -3.7
v 1.6 2.3 -3.8
v 1.6 2.4 -3.8
v 1.6 2.4 -4
v 1.6 2.5 0
v 1.6 2.5 -3.7
v 1.6 2.7 -3.9
v 1.6 2.7 -4
v 1.6 2.8 -3.8
v 1.6 2.8 -3.9
v 1.6 2.9 -3.5
v 1.6 2.9 -3.8
v 1.6 3 -3.4
v 1.6 3 -3.5
v 1.6 3.1 0
v 1.6 3.1 -3.4
v 1.7 2.2 -3.7
v 1.7 2.2 -3.8
v 1.7 2.3 -3.7
v 1.7 2.3 -3.8
v 1.7 2.3 -4
v 1.7 2.4 -3.8
v 1.7 2.4 -4
v 1.7 3.1 0
v 1.7 3.1 -3.3
v 1.7 3.2 0
v 1.7 3.2 -3.3
v 1.8 2 -3.7
v 1.8 2 -3.9
v 1.8 2.1 -3.9
v 1.8 2.1 -4
v 1.8 2.2 -3.7
v 1.8 2.2 -3.8
v 1.8 2.3 -3.8
v 1.8 2.3 -4
v 1.8 3.3 -3.1
v 1.8 3.3 -3.2
v 1.8 3.5 -3.1
v 1.8 3.5 -3.2
v 1.9 2 -3.9
v 1.9 2 -4
v 1.9 2.1 -3.9
v 1.9 2.1 -4
v 1.9 3.2 -3.1
v 1.9 3.2 -3.2
v 1.9 3.3 -3.1
v 1.9 3.3 -3.2
v 1.9 3.5 -3.1
v 1.9 3.5 -3.2
v 1.9 3.6 -3.1
v 1.9 3.6 -3.2
v 2.1 2.2 -3.8
v 2.1 2.2 -3.9
v 2.1 2.4 -3.8
v 2.1 2.4 -3.9
v 2.1 3 -0.1
v 2.1 3 -3.2
v 2.1 3.1 -0.1
v 2.1 3.1 -3.2
v 2.1 3.3 -3.1
v 2.1 3.3 -3.2
v 2.1 3.5 -3.1
v 2.1 3.5 -3.2
v 2.2 2.4 -3.8
v 2.2 2.4 -3.9
v 2.2 2.5 -3.8
v 2.2 2.5 -3.9
v 2.3 2.5 -3.8
v 2.3 2.5 -3.9
v 2.3 2.6 -0.1
v 2.3 2.6 -3.8
v 2.3 2.6 -3.9
v 2.3 2.7 -3.7
v 2.3 2.7 -3.8
v 2.3 2.8 -3.3
v 2.3 2.8 -3.7
v 2.3 3 -0.1
v 2.3 3 -3.3
v 1.7 2.5 -3.8
v 1.7 2.5 -3.9
v 1.7 2.6 -0.1
v 1.7 2.6 -3.8
v 1.7 2.6 -3.9
v 1.7 2.7 -3.7
v 1.7 2.7 -3.8
v 1.7 2.8 -3.3
v 1.7 2.8 -3.7
v 1.7 3 -0.1
v 1.7 3 -3.3
v 1.8 2.4 -3.8
v 1.8 2.4 -3.9
v 1.8 2.5 -3.8
v 1.8 2.5 -3.9
v 1.8 3 -0.1
v 1.8 3 -3.2
v 1.8 3.1 -0.1
v 1.8 3.1 -3.2
v 1.9 2.2 -3.8
v 1.9 2.2 -3.9
v 1.9 2.4 -3.8
v 1.9 2.4 -3.9
v 1.9 3.3 -3.1
v 1.9 3.3 -3.2
v 1.9 3.5 -3.1
v 1.9 3.5 -3.2
v 2.1 2 -3.8
v 2.1 2 -4
v 2.1 2.1 -3.8
v 2.1 2.1 -4
v 2.1 3.2 -3.1
v 2.1 3.2 -3.2
v 2.1 3.3 -3.1
v 2.1 3.3 -3.2
v 2.1 3.5 -3.1
v 2.1 3.5 -3.2
v 2.1 3.6 -3.1
v 2.1 3.6 -3.2
v 2.2 2 -3.7
v 2.2 2 -3.8
v 2.2 2.1 -3.8
v 2.2 2.1 -4
v 2.2 2.3 -3.7
v 2.2 2.3 -4
v 2.2 3.3 -3.1
v 2.2 3.3 -3.2
v 2.2 3.5 -3.1
v 2.2 3.5 -3.2
v 2.3 2.3 -3.7
v 2.3 2.3 -4
v 2.3 2.4 -3.7
v 2.3 2.4 -4
v 2.3 3.1 0
v 2.3 3.1 -3.3
v 2.3 3.2 0
v 2.3 3.2 -3.3
v 2.4 2.4 -3.7
v 2.4 2.4 -4
v 2.4 2.5 0
v 2.4 2.5 -3.7
v 2.4 2.7 -3.9
v 2.4 2.7 -4
v 2.4 2.8 -3.8
v 2.4 2.8 -3.9
v 2.4 2.9 -3.5
v 2.4 2.9 -3.8
v 2.4 3 -3.4
v 2.4 3 -3.5
v 2.4 3.1 0
v 2.4 3.1 -3.4
v 1.6 2.5 0
v 1.6 3.1 0
v 1.7 3.1 0
v 1.7 3.2 0
v 2.3 3.1 0
v 2.3 3.2 0
v 2.4 2.5 0
v 2.4 3.1 0
v 1.8 3.3 -3.1
v 1.8 3.5 -3.1
v 1.9 3.2 -3.1
v 1.9 3.3 -3.1
v 1.9 3.5 -3.1
v 1.9 3.6 -3.1
v 2.1 3.2 -3.1
v 2.1 3.3 -3.1
v 2.1 3.5 -3.1
v 2.1 3.6 -3.1
v 2.2 3.3 -3.1
v 2.2 3.5 -3.1
v 1.8 3 -3.2
v 1.8 3.1 -3.2
v 2.1 3 -3.2
v 2.1 3.1 -3.2
v 1.7 2.8 -3.3
v 1.7 3 -3.3
v 2.3 2.8 -3.3
v 2.3 3 -3.3
v 1.6 2.3 -3.7
v 1.6 2.5 -3.7
v 1.7 2.2 -3.7
v 1.7 2.3 -3.7
v 1.7 2.7 -3.7
v 1.7 2.8 -3.7
v 1.8 2 -3.7
v 1.8 2.2 -3.7
v 2.2 2 -3.7
v 2.2 2.3 -3.7
v 2.3 2.3 -3.7
v 2.3 2.4 -3.7
v 2.3 2.7 -3.7
v 2.3 2.8 -3.7
v 2.4 2.4 -3.7
v 2.4 2.5 -3.7
v 1.7 2.6 -3.8
v 1.7 2.7 -3.8
v 2.3 2.6 -3.8
v 2.3 2.7 -3.8
v 1.7 2.5 -3.9
v 1.7 2.6 -3.9
v 1.8 2.4 -3.9
v 1.8 2.5 -3.9
v 1.9 2.2 -3.9
v 1.9 2.4 -3.9
v 2.1 2.2 -3.9
v 2.1 2.4 -3.9
v 2.2 2.4 -3.9
v 2.2 2.5 -3.9
v 2.3 2.5 -3.9
v 2.3 2.6 -3.9
v 1.7 2.6 -0.1
v 1.7 3 -0.1
v 1.8 3 -0.1
v 1.8 3.1 -0.1
v 2.1 3 -0.1
v 2.1 3.1 -0.1
v 2.3 2.6 -0.1
v 2.3 3 -0.1
v 1.8 3.3 -3.2
v 1.8 3.5 -3.2
v 1.9 3.2 -3.2
v 1.9 3.3 -3.2
v 1.9 3.5 -3.2
v 1.9 3.6 -3.2
v 2.1 3.2 -3.2
v 2.1 3.3 -3.2
v 2.1 3.5 -3.2
v 2.1 3.6 -3.2
v 2.2 3.3 -3.2
v 2.2 3.5 -3.2
v 1.7 3.1 -3.3
v 1.7 3.2 -3.3
v 2.3 3.1 -3.3
v 2.3 3.2 -3.3
v 1.6 3 -3.4
v 1.6 3.1 -3.4
v 2.4 3 -3.4
v 2.4 3.1 -3.4
v 1.6 2.9 -3.5
v 1.6 3 -3.5
v 2.4 2.9 -3.5
v 2.4 3 -3.5
v 1.6 2.3 -3.8
v 1.6 2.4 -3.8
v 1.6 2.8 -3.8
v 1.6 2.9 -3.8
v 1.7 2.2 -3.8
v 1.7 2.3 -3.8
v 1.7 2.4 -3.8
v 1.7 2.5 -3.8
v 1.7 2.6 -3.8
v 1.8 2.2 -3.8
v 1.8 2.3 -3.8
v 1.8 2.4 -3.8
v 1.8 2.5 -3.8
v 1.9 2.2 -3.8
v 1.9 2.4 -3.8
v 2.1 2 -3.8
v 2.1 2.1 -3.8
v 2.1 2.2 -3.8
v 2.1 2.4 -3.8
v 2.2 2 -3.8
v 2.2 2.1 -3.8
v 2.2 2.4 -3.8
v 2.2 2.5 -3.8
v 2.3 2.5 -3.8
v 2.3 2.6 -3.8
v 2.4 2.8 -3.8
v 2.4 2.9 -3.8
v 1.6 2.7 -3.9
v 1.6 2.8 -3.9
v 1.8 2 -3.9
v 1.8 2.1 -3.9
v 1.9 2 -3.9
v 1.9 2.1 -3.9
v 2.4 2.7 -3.9
v 2.4 2.8 -3.9
v 1.6 2.4 -4
v 1.6 2.7 -4
v 1.7 2.3 -4
v 1.7 2.4 -4
v 1.8 2.1 -4
v 1.8 2.3 -4
v 1.9 2 -4
v 1.9 2.1 -4
v 2.1 2 -4
v 2.1 2.1 -4
v 2.2 2.1 -4
v 2.2 2.3 -4
v 2.3 2.3 -4
v 2.3 2.4 -4
v 2.4 2.4 -4
v 2.4 2.7 -4
v 1.8 2 -3.7
v 2.2 2 -3.7
v 2.1 2 -3.8
v 2.2 2 -3.8
v 1.8 2 -3.9
v 1.9 2 -3.9
v 1.9 2 -4
v 2.1 2 -4
v 2.1 2.1 -3.8
v 2.2 2.1 -3.8
v 1.8 2.1 -3.9
v 1.9 2.1 -3.9
v 1.8 2.1 -4
v 1.9 2.1 -4
v 2.1 2.1 -4
v 2.2 2.1 -4
v 1.7 2.2 -3.7
v 1.8 2.2 -3.7
v 1.7 2.2 -3.8
v 1.8 2.2 -3.8
v 1.6 2.3 -3.7
v 1.7 2.3 -3.7
v 2.2 2.3 -3.7
v 2.3 2.3 -3.7
v 1.6 2.3 -3.8
v 1.7 2.3 -3.8
v 1.8 2.3 -3.8
v 1.7 2.3 -4
v 1.8 2.3 -4
v 2.2 2.3 -4
v 2.3 2.3 -4
v 2.3 2.4 -3.7
v 2.4 2.4 -3.7
v 1.6 2.4 -3.8
v 1.7 2.4 -3.8
v 1.6 2.4 -4
v 1.7 2.4 -4
v 2.3 2.4 -4
v 2.4 2.4 -4
v 1.6 2.5 0
v 2.4 2.5 0
v 1.6 2.5 -3.7
v 2.4 2.5 -3.7
v 1.7 2.6 -3.8
v 2.3 2.6 -3.8
v 1.7 2.6 -3.9
v 2.3 2.6 -3.9
v 1.7 2.7 -3.7
v 2.3 2.7 -3.7
v 1.7 2.7 -3.8
v 2.3 2.7 -3.8
v 1.7 2.8 -3.3
v 2.3 2.8 -3.3
v 1.7 2.8 -3.7
v 2.3 2.8 -3.7
v 1.7 3 -0.1
v 1.8 3 -0.1
v 2.1 3 -0.1
v 2.3 3 -0.1
v 1.8 3 -3.2
v 2.1 3 -3.2
v 1.7 3 -3.3
v 2.3 3 -3.3
v 1.8 3.1 -0.1
v 2.1 3.1 -0.1
v 1.8 3.1 -3.2
v 2.1 3.1 -3.2
v 1.8 3.3 -3.1
v 1.9 3.3 -3.1
v 2.1 3.3 -3.1
v 2.2 3.3 -3.1
v 1.8 3.3 -3.2
v 1.9 3.3 -3.2
v 2.1 3.3 -3.2
v 2.2 3.3 -3.2
v 1.9 3.5 -3.1
v 2.1 3.5 -3.1
v 1.9 3.5 -3.2
v 2.1 3.5 -3.2
v 1.9 2.2 -3.8
v 2.1 2.2 -3.8
v 1.9 2.2 -3.9
v 2.1 2.2 -3.9
v 1.8 2.4 -3.8
v 1.9 2.4 -3.8
v 2.1 2.4 -3.8
v 2.2 2.4 -3.8
v 1.8 2.4 -3.9
v 1.9 2.4 -3.9
v 2.1 2.4 -3.9
v 2.2 2.4 -3.9
v 1.7 2.5 -3.8
v 1.8 2.5 -3.8
v 2.2 2.5 -3.8
v 2.3 2.5 -3.8
v 1.7 2.5 -3.9
v 1.8 2.5 -3.9
v 2.2 2.5 -3.9
v 2.3 2.5 -3.9
v 1.7 2.6 -0.1
v 2.3 2.6 -0.1
v 1.7 2.6 -3.8
v 2.3 2.6 -3.8
v 1.6 2.7 -3.9
v 2.4 2.7 -3.9
v 1.6 2.7 -4
v 2.4 2.7 -4
v 1.6 2.8 -3.8
v 2.4 2.8 -3.8
v 1.6 2.8 -3.9
v 2.4 2.8 -3.9
v 1.6 2.9 -3.5
v 2.4 2.9 -3.5
v 1.6 2.9 -3.8
v 2.4 2.9 -3.8
v 1.6 3 -3.4
v 2.4 3 -3.4
v 1.6 3 -3.5
v 2.4 3 -3.5
v 1.6 3.1 0
v 1.7 3.1 0
v 2.3 3.1 0
v 2.4 3.1 0
v 1.7 3.1 -3.3
v 2.3 3.1 -3.3
v 1.6 3.1 -3.4
v 2.4 3.1 -3.4
v 1.7 3.2 0
v 2.3 3.2 0
v 1.9 3.2 -3.1
v 2.1 3.2 -3.1
v 1.9 3.2 -3.2
v 2.1 3.2 -3.2
v 1.7 3.2 -3.3
v 2.3 3.2 -3.3
v 1.9 3.3 -3.1
v 2.1 3.3 -3.1
v 1.9 3.3 -3.2
v 2.1 3.3 -3.2
v 1.8 3.5 -3.1
v 1.9 3.5 -3.1
v 2.1 3.5 -3.1
v 2.2 3.5 -3.1
v 1.8 3.5 -3.2
v 1.9 3.5 -3.2
v 2.1 3.5 -3.2
v 2.2 3.5 -3.2
v 1.9 3.6 -3.1
v 2.1 3.6 -3.1
v 1.9 3.6 -3.2
v 2.1 3.6 -3.2

# faces
f 3/1/1 2/1/1 1/1/1
f 6/1/1 3/1/1 1/1/1
f 6/1/1 4/1/1 3/1/1
f 7/1/1 4/1/1 6/1/1
f 7/1/1 6/1/1 5/1/1
f 8/1/1 4/1/1 7/1/1
f 9/1/1 7/1/1 5/1/1
f 10/1/1 7/1/1 9/1/1
f 11/1/1 9/1/1 5/1/1
f 12/1/1 9/1/1 11/1/1
f 13/1/1 11/1/1 5/1/1
f 14/1/1 11/1/1 13/1/1
f 15/1/1 13/1/1 5/1/1
f 16/1/1 13/1/1 15/1/1
f 19/1/1 18/1/1 17/1/1
f 20/1/1 18/1/1 19/1/1
f 22/1/1 21/1/1 20/1/1
f 23/1/1 21/1/1 22/1/1
f 26/1/1 25/1/1 24/1/1
f 27/1/1 25/1/1 26/1/1
f 30/1/1 29/1/1 28/1/1
f 32/1/1 30/1/1 28/1/1
f 32/1/1 31/1/1 30/1/1
f 33/1/1 31/1/1 32/1/1
f 34/1/1 31/1/1 33/1/1
f 35/1/1 31/1/1 34/1/1
f 38/1/1 37/1/1 36/1/1
f 39/1/1 37/1/1 38/1/1
f 42/1/1 41/1/1 40/1/1
f 43/1/1 41/1/1 42/1/1
f 46/1/1 45/1/1 44/1/1
f 47/1/1 45/1/1 46/1/1
f 50/1/1 49/1/1 48/1/1
f 51/1/1 49/1/1 50/1/1
f 54/1/1 53/1/1 52/1/1
f 55/1/1 53/1/1 54/1/1
f 58/1/1 57/1/1 56/1/1
f 59/1/1 57/1/1 58/1/1
f 62/1/1 61/1/1 60/1/1
f 63/1/1 61/1/1 62/1/1
f 66/1/1 65/1/1 64/1/1
f 67/1/1 65/1/1 66/1/1
f 71/1/1 69/1/1 68/1/1
f 72/1/1 69/1/1 71/1/1
f 73/1/1 71/1/1 70/1/1
f 74/1/1 71/1/1 73/1/1
f 75/1/1 73/1/1 70/1/1
f 76/1/1 73/1/1 75/1/1
f 77/1/1 75/1/1 70/1/1
f 78/1/1 75/1/1 77/1/1
f 79/1/2 80/1/2 82/1/2
f 82/1/2 80/1/2 83/1/2
f 81/1/2 82/1/2 84/1/2
f 84/1/2 82/1/2 85/1/2
f 81/1/2 84/1/2 86/1/2
f 86/1/2 84/1/2 87/1/2
f 81/1/2 86/1/2 88/1/2
f 88/1/2 86/1/2 89/1/2
f 90/1/2 91/1/2 92/1/2
f 92/1/2 91/1/2 93/1/2
f 94/1/2 95/1/2 96/1/2
f 96/1/2 95/1/2 97/1/2
f 98/1/2 99/1/2 100/1/2
f 100/1/2 99/1/2 101/1/2
f 102/1/2 103/1/2 104/1/2
f 104/1/2 103/1/2 105/1/2
f 106/1/2 107/1/2 108/1/2
f 108/1/2 107/1/2 109/1/2
f 110/1/2 111/1/2 112/1/2
f 112/1/2 111/1/2 113/1/2
f 114/1/2 115/1/2 116/1/2
f 116/1/2 115/1/2 117/1/2
f 118/1/2 119/1/2 120/1/2
f 118/1/2 120/1/2 122/1/2
f 120/1/2 121/1/2 122/1/2
f 122/1/2 121/1/2 123/1/2
f 124/1/2 125/1/2 126/1/2
f 126/1/2 125/1/2 127/1/2
f 128/1/2 129/1/2 130/1/2
f 130/1/2 129/1/2 131/1/2
f 132/1/2 133/1/2 134/1/2
f 134/1/2 133/1/2 135/1/2
f 136/1/2 137/1/2 139/1/2
f 139/1/2 137/1/2 140/1/2
f 138/1/2 139/1/2 140/1/2
f 140/1/2 137/1/2 141/1/2
f 138/1/2 140/1/2 142/1/2
f 142/1/2 140/1/2 143/1/2
f 138/1/2 142/1/2 144/1/2
f 144/1/2 142/1/2 145/1/2
f 138/1/2 144/1/2 146/1/2
f 146/1/2 144/1/2 147/1/2
f 138/1/2 146/1/2 148/1/2
f 148/1/2 146/1/2 149/1/2
f 152/1/3 151/1/3 150/1/3
f 154/1/3 152/1/3 150/1/3
f 154/1/3 153/1/3 152/1/3
f 155/1/3 153/1/3 154/1/3
f 156/1/3 154/1/3 150/1/3
f 157/1/3 154/1/3 156/1/3
f 161/1/3 159/1/3 158/1/3
f 162/1/3 159/1/3 161/1/3
f 164/1/3 161/1/3 160/1/3
f 165/1/3 161/1/3 164/1/3
f 166/1/3 163/1/3 162/1/3
f 167/1/3 163/1/3 166/1/3
f 168/1/3 166/1/3 165/1/3
f 169/1/3 166/1/3 168/1/3
f 172/1/3 171/1/3 170/1/3
f 173/1/3 171/1/3 172/1/3
f 176/1/3 175/1/3 174/1/3
f 177/1/3 175/1/3 176/1/3
f 181/1/3 179/1/3 178/1/3
f 185/1/3 181/1/3 180/1/3
f 186/1/3 185/1/3 184/1/3
f 187/1/3 179/1/3 181/1/3
f 187/1/3 185/1/3 186/1/3
f 187/1/3 181/1/3 185/1/3
f 188/1/3 179/1/3 187/1/3
f 189/1/3 179/1/3 188/1/3
f 190/1/3 183/1/3 182/1/3
f 191/1/3 183/1/3 190/1/3
f 192/1/3 179/1/3 189/1/3
f 193/1/3 179/1/3 192/1/3
f 196/1/3 195/1/3 194/1/3
f 197/1/3 195/1/3 196/1/3
f 201/1/3 199/1/3 198/1/3
f 203/1/3 201/1/3 200/1/3
f 204/1/3 203/1/3 202/1/3
f 205/1/3 201/1/3 203/1/3
f 205/1/3 203/1/3 204/1/3
f 206/1/3 201/1/3 205/1/3
f 207/1/3 199/1/3 201/1/3
f 207/1/3 201/1/3 206/1/3
f 208/1/3 199/1/3 207/1/3
f 209/1/3 199/1/3 208/1/3
f 210/1/4 211/1/4 212/1/4
f 210/1/4 212/1/4 214/1/4
f 212/1/4 213/1/4 214/1/4
f 214/1/4 213/1/4 215/1/4
f 210/1/4 214/1/4 216/1/4
f 216/1/4 214/1/4 217/1/4
f 218/1/4 219/1/4 221/1/4
f 221/1/4 219/1/4 222/1/4
f 220/1/4 221/1/4 224/1/4
f 224/1/4 221/1/4 225/1/4
f 222/1/4 223/1/4 226/1/4
f 226/1/4 223/1/4 227/1/4
f 225/1/4 226/1/4 228/1/4
f 228/1/4 226/1/4 229/1/4
f 230/1/4 231/1/4 232/1/4
f 232/1/4 231/1/4 233/1/4
f 234/1/4 235/1/4 236/1/4
f 236/1/4 235/1/4 237/1/4
f 238/1/4 239/1/4 240/1/4
f 240/1/4 239/1/4 241/1/4
f 242/1/4 243/1/4 247/1/4
f 247/1/4 243/1/4 248/1/4
f 246/1/4 247/1/4 251/1/4
f 251/1/4 247/1/4 252/1/4
f 249/1/4 250/1/4 254/1/4
f 253/1/4 254/1/4 256/1/4
f 255/1/4 256/1/4 259/1/4
f 256/1/4 254/1/4 260/1/4
f 259/1/4 256/1/4 260/1/4
f 257/1/4 258/1/4 261/1/4
f 261/1/4 258/1/4 262/1/4
f 260/1/4 254/1/4 263/1/4
f 254/1/4 250/1/4 264/1/4
f 263/1/4 254/1/4 264/1/4
f 264/1/4 250/1/4 265/1/4
f 265/1/4 250/1/4 266/1/4
f 244/1/4 245/1/4 267/1/4
f 267/1/4 245/1/4 268/1/4
f 271/1/4 272/1/4 273/1/4
f 273/1/4 272/1/4 274/1/4
f 269/1/4 270/1/4 275/1/4
f 275/1/4 270/1/4 276/1/4
f 277/1/4 278/1/4 280/1/4
f 279/1/4 280/1/4 282/1/4
f 281/1/4 282/1/4 284/1/4
f 283/1/4 284/1/4 285/1/4
f 284/1/4 282/1/4 286/1/4
f 285/1/4 284/1/4 286/1/4
f 286/1/4 282/1/4 287/1/4
f 282/1/4 280/1/4 288/1/4
f 287/1/4 282/1/4 288/1/4
f 288/1/4 280/1/4 289/1/4
f 280/1/4 278/1/4 290/1/4
f 289/1/4 280/1/4 290/1/4
f 290/1/4 278/1/4 291/1/4
f 291/1/4 278/1/4 292/1/4
f 295/1/5 294/1/5 293/1/5
f 296/1/5 294/1/5 295/1/5
f 297/1/5 295/1/5 293/1/5
f 298/1/5 295/1/5 297/1/5
f 299/1/5 295/1/5 298/1/5
f 300/1/5 295/1/5 299/1/5
f 305/1/5 304/1/5 303/1/5
f 306/1/5 304/1/5 305/1/5
f 307/1/5 302/1/5 301/1/5
f 308/1/5 302/1/5 307/1/5
f 311/1/5 310/1/5 309/1/5
f 312/1/5 310/1/5 311/1/5
f 317/1/5 314/1/5 313/1/5
f 318/1/5 314/1/5 317/1/5
f 320/1/5 319/1/5 318/1/5
f 321/1/5 319/1/5 320/1/5
f 322/1/5 316/1/5 315/1/5
f 323/1/5 316/1/5 322/1/5
f 328/1/5 327/1/5 326/1/5
f 329/1/5 327/1/5 328/1/5
f 330/1/5 325/1/5 324/1/5
f 331/1/5 325/1/5 330/1/5
f 334/1/5 333/1/5 332/1/5
f 335/1/5 333/1/5 334/1/5
f 338/1/5 337/1/5 336/1/5
f 339/1/5 337/1/5 338/1/5
f 342/1/5 341/1/5 340/1/5
f 343/1/5 341/1/5 342/1/5
f 346/1/5 345/1/5 344/1/5
f 347/1/5 345/1/5 346/1/5
f 352/1/5 349/1/5 348/1/5
f 353/1/5 351/1/5 350/1/5
f 354/1/5 352/1/5 348/1/5
f 354/1/5 353/1/5 352/1/5
f 355/1/5 351/1/5 353/1/5
f 355/1/5 353/1/5 354/1/5
f 358/1/5 357/1/5 356/1/5
f 359/1/5 357/1/5 358/1/5
f 364/1/5 361/1/5 360/1/5
f 365/1/5 361/1/5 364/1/5
f 366/1/5 363/1/5 362/1/5
f 367/1/5 363/1/5 366/1/5
f 370/1/5 369/1/5 368/1/5
f 371/1/5 369/1/5 370/1/5
f 372/1/6 373/1/6 374/1/6
f 374/1/6 373/1/6 375/1/6
f 376/1/6 377/1/6 380/1/6
f 380/1/6 377/1/6 381/1/6
f 378/1/6 379/1/6 382/1/6
f 382/1/6 379/1/6 383/1/6
f 384/1/6 385/1/6 388/1/6
f 388/1/6 385/1/6 389/1/6
f 386/1/6 387/1/6 390/1/6
f 390/1/6 387/1/6 391/1/6
f 392/1/6 393/1/6 394/1/6
f 394/1/6 393/1/6 395/1/6
f 396/1/6 397/1/6 398/1/6
f 398/1/6 397/1/6 399/1/6
f 400/1/6 401/1/6 402/1/6
f 402/1/6 401/1/6 403/1/6
f 404/1/6 405/1/6 406/1/6
f 406/1/6 405/1/6 407/1/6
f 408/1/6 409/1/6 410/1/6
f 410/1/6 409/1/6 411/1/6
f 412/1/6 413/1/6 416/1/6
f 414/1/6 415/1/6 417/1/6
f 412/1/6 416/1/6 418/1/6
f 416/1/6 417/1/6 418/1/6
f 417/1/6 415/1/6 419/1/6
f 418/1/6 417/1/6 419/1/6
f 420/1/6 421/1/6 422/1/6
f 422/1/6 421/1/6 423/1/6
f 420/1/6 422/1/6 424/1/6
f 423/1/6 421/1/6 425/1/6
f 420/1/6 424/1/6 426/1/6
f 424/1/6 425/1/6 426/1/6
f 425/1/6 421/1/6 427/1/6
f 426/1/6 425/1/6 427/1/6
f 428/1/6 429/1/6 430/1/6
f 430/1/6 429/1/6 431/1/6
f 432/1/6 433/1/6 436/1/6
f 436/1/6 433/1/6 437/1/6
f 434/1/6 435/1/6 438/1/6
f 438/1/6 435/1/6 439/1/6
f 440/1/6 441/1/6 442/1/6
f 442/1/6 441/1/6 443/1/6
