# MagicaVoxel @ Ephtracy

# group
o 

# material
mtllib BFR.mtl
usemtl palette

# normals
vn -1 0 0
vn 1 0 0
vn 0 0 1
vn 0 0 -1
vn 0 -1 0
vn 0 1 0

# texcoords
vt 0.939453 0.5
vt 0.943359 0.5
vt 0.947266 0.5

# verts
v 0.3 2 -1.5
v 0.3 2 -1.6
v 0.3 2.4 -1.5
v 0.3 2.4 -1.6
v 0.4 2.4 -1.5
v 0.4 2.4 -1.6
v 0.4 2.5 -1.5
v 0.4 2.5 -1.6
v 0.5 2.5 -1.5
v 0.5 2.5 -1.6
v 0.5 2.6 -1.5
v 0.5 2.6 -1.6
v 0.6 2.6 -1.5
v 0.6 2.6 -1.6
v 0.6 2.7 -1.5
v 0.6 2.7 -1.6
v 0.7 2.4 -1.2
v 0.7 2.4 -1.5
v 0.7 2.4 -1.6
v 0.7 2.4 -1.9
v 0.7 2.7 -1.5
v 0.7 2.7 -1.6
v 0.7 4.5 -1.2
v 0.7 4.5 -1.9
v 0.7 4.6 -1.2
v 0.7 4.6 -1.9
v 0.8 4.6 -1.3
v 0.8 4.6 -1.8
v 0.8 4.7 -1.3
v 0.8 4.7 -1.8
v 0.9 4.7 -1.4
v 0.9 4.7 -1.7
v 0.9 4.8 -1.4
v 0.9 4.8 -1.7
v 1 2 -0.8
v 1 2 -0.9
v 1 2 -2.2
v 1 2 -2.3
v 1 2.3 -0.9
v 1 2.3 -1
v 1 2.3 -2.1
v 1 2.3 -2.2
v 1 2.4 -0.8
v 1 2.4 -0.9
v 1 2.4 -1
v 1 2.4 -1.2
v 1 2.4 -1.9
v 1 2.4 -2.1
v 1 2.4 -2.2
v 1 2.4 -2.3
v 1 2.5 -0.9
v 1 2.5 -1
v 1 2.5 -2.1
v 1 2.5 -2.2
v 1 2.6 -1
v 1 2.6 -1.1
v 1 2.6 -2
v 1 2.6 -2.1
v 1 2.7 -1.1
v 1 2.7 -1.2
v 1 2.7 -1.9
v 1 2.7 -2
v 1 4.8 -1.5
v 1 4.8 -1.6
v 1 4.9 -1.5
v 1 4.9 -1.6
v 1.6 2.3 -1.5
v 1.6 2.3 -1.6
v 1.6 2.4 -1.5
v 1.6 2.4 -1.6
v 1.7 2 -1.5
v 1.7 2 -1.6
v 1.7 2.3 -1.5
v 1.7 2.3 -1.6
v 0.4 2 -1.5
v 0.4 2 -1.6
v 0.4 2.3 -1.5
v 0.4 2.3 -1.6
v 0.5 2.3 -1.5
v 0.5 2.3 -1.6
v 0.5 2.4 -1.5
v 0.5 2.4 -1.6
v 1.1 2 -0.8
v 1.1 2 -0.9
v 1.1 2 -2.2
v 1.1 2 -2.3
v 1.1 2.3 -0.9
v 1.1 2.3 -1
v 1.1 2.3 -2.1
v 1.1 2.3 -2.2
v 1.1 2.4 -0.8
v 1.1 2.4 -0.9
v 1.1 2.4 -1
v 1.1 2.4 -1.2
v 1.1 2.4 -1.9
v 1.1 2.4 -2.1
v 1.1 2.4 -2.2
v 1.1 2.4 -2.3
v 1.1 2.5 -0.9
v 1.1 2.5 -1
v 1.1 2.5 -2.1
v 1.1 2.5 -2.2
v 1.1 2.6 -1
v 1.1 2.6 -1.1
v 1.1 2.6 -2
v 1.1 2.6 -2.1
v 1.1 2.7 -1.1
v 1.1 2.7 -1.2
v 1.1 2.7 -1.9
v 1.1 2.7 -2
v 1.1 4.8 -1.5
v 1.1 4.8 -1.6
v 1.1 4.9 -1.5
v 1.1 4.9 -1.6
v 1.2 4.7 -1.4
v 1.2 4.7 -1.5
v 1.2 4.7 -1.6
v 1.2 4.7 -1.7
v 1.2 4.8 -1.4
v 1.2 4.8 -1.5
v 1.2 4.8 -1.6
v 1.2 4.8 -1.7
v 1.3 4.6 -1.3
v 1.3 4.6 -1.4
v 1.3 4.6 -1.5
v 1.3 4.6 -1.6
v 1.3 4.6 -1.7
v 1.3 4.6 -1.8
v 1.3 4.7 -1.3
v 1.3 4.7 -1.4
v 1.3 4.7 -1.5
v 1.3 4.7 -1.6
v 1.3 4.7 -1.7
v 1.3 4.7 -1.8
v 1.4 2.4 -1.2
v 1.4 2.4 -1.5
v 1.4 2.4 -1.6
v 1.4 2.4 -1.9
v 1.4 2.7 -1.5
v 1.4 2.7 -1.6
v 1.4 4.5 -1.2
v 1.4 4.5 -1.3
v 1.4 4.5 -1.4
v 1.4 4.5 -1.5
v 1.4 4.5 -1.6
v 1.4 4.5 -1.7
v 1.4 4.5 -1.8
v 1.4 4.5 -1.9
v 1.4 4.6 -1.2
v 1.4 4.6 -1.3
v 1.4 4.6 -1.4
v 1.4 4.6 -1.5
v 1.4 4.6 -1.6
v 1.4 4.6 -1.7
v 1.4 4.6 -1.8
v 1.4 4.6 -1.9
v 1.5 2.6 -1.5
v 1.5 2.6 -1.6
v 1.5 2.7 -1.5
v 1.5 2.7 -1.6
v 1.6 2.5 -1.5
v 1.6 2.5 -1.6
v 1.6 2.6 -1.5
v 1.6 2.6 -1.6
v 1.7 2.4 -1.5
v 1.7 2.4 -1.6
v 1.7 2.5 -1.5
v 1.7 2.5 -1.6
v 1.8 2 -1.5
v 1.8 2 -1.6
v 1.8 2.4 -1.5
v 1.8 2.4 -1.6
v 1 2 -0.8
v 1 2.4 -0.8
v 1.1 2 -0.8
v 1.1 2.4 -0.8
v 1 2.4 -0.9
v 1 2.5 -0.9
v 1.1 2.4 -0.9
v 1.1 2.5 -0.9
v 1 2.5 -1
v 1 2.6 -1
v 1.1 2.5 -1
v 1.1 2.6 -1
v 1 2.6 -1.1
v 1 2.7 -1.1
v 1.1 2.6 -1.1
v 1.1 2.7 -1.1
v 0.7 2.4 -1.2
v 0.7 4.5 -1.2
v 0.7 4.6 -1.2
v 0.8 4.5 -1.2
v 0.8 4.6 -1.2
v 0.9 4.5 -1.2
v 0.9 4.6 -1.2
v 1 2.4 -1.2
v 1 2.7 -1.2
v 1 4.5 -1.2
v 1 4.6 -1.2
v 1.1 2.4 -1.2
v 1.1 2.7 -1.2
v 1.1 4.5 -1.2
v 1.1 4.6 -1.2
v 1.2 4.5 -1.2
v 1.2 4.6 -1.2
v 1.3 4.5 -1.2
v 1.3 4.6 -1.2
v 1.4 2.4 -1.2
v 1.4 4.5 -1.2
v 1.4 4.6 -1.2
v 0.8 4.6 -1.3
v 0.8 4.7 -1.3
v 0.9 4.6 -1.3
v 0.9 4.7 -1.3
v 1 4.6 -1.3
v 1 4.7 -1.3
v 1.1 4.6 -1.3
v 1.1 4.7 -1.3
v 1.2 4.6 -1.3
v 1.2 4.7 -1.3
v 1.3 4.6 -1.3
v 1.3 4.7 -1.3
v 0.9 4.7 -1.4
v 0.9 4.8 -1.4
v 1 4.7 -1.4
v 1 4.8 -1.4
v 1.1 4.7 -1.4
v 1.1 4.8 -1.4
v 1.2 4.7 -1.4
v 1.2 4.8 -1.4
v 0.3 2 -1.5
v 0.3 2.4 -1.5
v 0.4 2 -1.5
v 0.4 2.3 -1.5
v 0.4 2.4 -1.5
v 0.4 2.5 -1.5
v 0.5 2.3 -1.5
v 0.5 2.4 -1.5
v 0.5 2.5 -1.5
v 0.5 2.6 -1.5
v 0.6 2.6 -1.5
v 0.6 2.7 -1.5
v 0.7 2.4 -1.5
v 0.7 2.7 -1.5
v 1 4.8 -1.5
v 1 4.9 -1.5
v 1.1 4.8 -1.5
v 1.1 4.9 -1.5
v 1.4 2.4 -1.5
v 1.4 2.7 -1.5
v 1.5 2.6 -1.5
v 1.5 2.7 -1.5
v 1.6 2.3 -1.5
v 1.6 2.4 -1.5
v 1.6 2.5 -1.5
v 1.6 2.6 -1.5
v 1.7 2 -1.5
v 1.7 2.3 -1.5
v 1.7 2.4 -1.5
v 1.7 2.5 -1.5
v 1.8 2 -1.5
v 1.8 2.4 -1.5
v 1 2.3 -2.1
v 1 2.4 -2.1
v 1.1 2.3 -2.1
v 1.1 2.4 -2.1
v 1 2 -2.2
v 1 2.3 -2.2
v 1.1 2 -2.2
v 1.1 2.3 -2.2
v 1 2 -0.9
v 1 2.3 -0.9
v 1.1 2 -0.9
v 1.1 2.3 -0.9
v 1 2.3 -1
v 1 2.4 -1
v 1.1 2.3 -1
v 1.1 2.4 -1
v 0.3 2 -1.6
v 0.3 2.4 -1.6
v 0.4 2 -1.6
v 0.4 2.3 -1.6
v 0.4 2.4 -1.6
v 0.4 2.5 -1.6
v 0.5 2.3 -1.6
v 0.5 2.4 -1.6
v 0.5 2.5 -1.6
v 0.5 2.6 -1.6
v 0.6 2.6 -1.6
v 0.6 2.7 -1.6
v 0.7 2.4 -1.6
v 0.7 2.7 -1.6
v 1 4.8 -1.6
v 1 4.9 -1.6
v 1.1 4.8 -1.6
v 1.1 4.9 -1.6
v 1.4 2.4 -1.6
v 1.4 2.7 -1.6
v 1.5 2.6 -1.6
v 1.5 2.7 -1.6
v 1.6 2.3 -1.6
v 1.6 2.4 -1.6
v 1.6 2.5 -1.6
v 1.6 2.6 -1.6
v 1.7 2 -1.6
v 1.7 2.3 -1.6
v 1.7 2.4 -1.6
v 1.7 2.5 -1.6
v 1.8 2 -1.6
v 1.8 2.4 -1.6
v 0.9 4.7 -1.7
v 0.9 4.8 -1.7
v 1 4.7 -1.7
v 1 4.8 -1.7
v 1.1 4.7 -1.7
v 1.1 4.8 -1.7
v 1.2 4.7 -1.7
v 1.2 4.8 -1.7
v 0.8 4.6 -1.8
v 0.8 4.7 -1.8
v 0.9 4.6 -1.8
v 0.9 4.7 -1.8
v 1 4.6 -1.8
v 1 4.7 -1.8
v 1.1 4.6 -1.8
v 1.1 4.7 -1.8
v 1.2 4.6 -1.8
v 1.2 4.7 -1.8
v 1.3 4.6 -1.8
v 1.3 4.7 -1.8
v 0.7 2.4 -1.9
v 0.7 4.5 -1.9
v 0.7 4.6 -1.9
v 0.8 4.5 -1.9
v 0.8 4.6 -1.9
v 0.9 4.5 -1.9
v 0.9 4.6 -1.9
v 1 2.4 -1.9
v 1 2.7 -1.9
v 1 4.5 -1.9
v 1 4.6 -1.9
v 1.1 2.4 -1.9
v 1.1 2.7 -1.9
v 1.1 4.5 -1.9
v 1.1 4.6 -1.9
v 1.2 4.5 -1.9
v 1.2 4.6 -1.9
v 1.3 4.5 -1.9
v 1.3 4.6 -1.9
v 1.4 2.4 -1.9
v 1.4 4.5 -1.9
v 1.4 4.6 -1.9
v 1 2.6 -2
v 1 2.7 -2
v 1.1 2.6 -2
v 1.1 2.7 -2
v 1 2.5 -2.1
v 1 2.6 -2.1
v 1.1 2.5 -2.1
v 1.1 2.6 -2.1
v 1 2.4 -2.2
v 1 2.5 -2.2
v 1.1 2.4 -2.2
v 1.1 2.5 -2.2
v 1 2 -2.3
v 1 2.4 -2.3
v 1.1 2 -2.3
v 1.1 2.4 -2.3
v 1 2 -0.8
v 1.1 2 -0.8
v 1 2 -0.9
v 1.1 2 -0.9
v 0.3 2 -1.5
v 0.4 2 -1.5
v 1.7 2 -1.5
v 1.8 2 -1.5
v 0.3 2 -1.6
v 0.4 2 -1.6
v 1.7 2 -1.6
v 1.8 2 -1.6
v 1 2 -2.2
v 1.1 2 -2.2
v 1 2 -2.3
v 1.1 2 -2.3
v 1 2.3 -0.9
v 1.1 2.3 -0.9
v 1 2.3 -1
v 1.1 2.3 -1
v 0.4 2.3 -1.5
v 0.5 2.3 -1.5
v 1.6 2.3 -1.5
v 1.7 2.3 -1.5
v 0.4 2.3 -1.6
v 0.5 2.3 -1.6
v 1.6 2.3 -1.6
v 1.7 2.3 -1.6
v 1 2.3 -2.1
v 1.1 2.3 -2.1
v 1 2.3 -2.2
v 1.1 2.3 -2.2
v 1 2.4 -1
v 1.1 2.4 -1
v 0.7 2.4 -1.2
v 1 2.4 -1.2
v 1.1 2.4 -1.2
v 1.4 2.4 -1.2
v 0.8 2.4 -1.3
v 1.3 2.4 -1.3
v 0.5 2.4 -1.5
v 0.7 2.4 -1.5
v 1.4 2.4 -1.5
v 1.6 2.4 -1.5
v 0.5 2.4 -1.6
v 0.7 2.4 -1.6
v 1.4 2.4 -1.6
v 1.6 2.4 -1.6
v 0.8 2.4 -1.8
v 1.3 2.4 -1.8
v 0.7 2.4 -1.9
v 1 2.4 -1.9
v 1.1 2.4 -1.9
v 1.4 2.4 -1.9
v 1 2.4 -2.1
v 1.1 2.4 -2.1
v 1 2.4 -0.8
v 1.1 2.4 -0.8
v 1 2.4 -0.9
v 1.1 2.4 -0.9
v 0.3 2.4 -1.5
v 0.4 2.4 -1.5
v 1.7 2.4 -1.5
v 1.8 2.4 -1.5
v 0.3 2.4 -1.6
v 0.4 2.4 -1.6
v 1.7 2.4 -1.6
v 1.8 2.4 -1.6
v 1 2.4 -2.2
v 1.1 2.4 -2.2
v 1 2.4 -2.3
v 1.1 2.4 -2.3
v 1 2.5 -0.9
v 1.1 2.5 -0.9
v 1 2.5 -1
v 1.1 2.5 -1
v 0.4 2.5 -1.5
v 0.5 2.5 -1.5
v 1.6 2.5 -1.5
v 1.7 2.5 -1.5
v 0.4 2.5 -1.6
v 0.5 2.5 -1.6
v 1.6 2.5 -1.6
v 1.7 2.5 -1.6
v 1 2.5 -2.1
v 1.1 2.5 -2.1
v 1 2.5 -2.2
v 1.1 2.5 -2.2
v 1 2.6 -1
v 1.1 2.6 -1
v 1 2.6 -1.1
v 1.1 2.6 -1.1
v 0.5 2.6 -1.5
v 0.6 2.6 -1.5
v 1.5 2.6 -1.5
v 1.6 2.6 -1.5
v 0.5 2.6 -1.6
v 0.6 2.6 -1.6
v 1.5 2.6 -1.6
v 1.6 2.6 -1.6
v 1 2.6 -2
v 1.1 2.6 -2
v 1 2.6 -2.1
v 1.1 2.6 -2.1
v 1 2.7 -1.1
v 1.1 2.7 -1.1
v 1 2.7 -1.2
v 1.1 2.7 -1.2
v 0.6 2.7 -1.5
v 0.7 2.7 -1.5
v 1.4 2.7 -1.5
v 1.5 2.7 -1.5
v 0.6 2.7 -1.6
v 0.7 2.7 -1.6
v 1.4 2.7 -1.6
v 1.5 2.7 -1.6
v 1 2.7 -1.9
v 1.1 2.7 -1.9
v 1 2.7 -2
v 1.1 2.7 -2
v 0.7 4.6 -1.2
v 0.8 4.6 -1.2
v 0.9 4.6 -1.2
v 1 4.6 -1.2
v 1.1 4.6 -1.2
v 1.2 4.6 -1.2
v 1.3 4.6 -1.2
v 1.4 4.6 -1.2
v 0.8 4.6 -1.3
v 0.9 4.6 -1.3
v 1 4.6 -1.3
v 1.1 4.6 -1.3
v 1.2 4.6 -1.3
v 1.3 4.6 -1.3
v 1.4 4.6 -1.3
v 1.3 4.6 -1.4
v 1.4 4.6 -1.4
v 1.3 4.6 -1.5
v 1.4 4.6 -1.5
v 1.3 4.6 -1.6
v 1.4 4.6 -1.6
v 1.3 4.6 -1.7
v 1.4 4.6 -1.7
v 0.8 4.6 -1.8
v 0.9 4.6 -1.8
v 1 4.6 -1.8
v 1.1 4.6 -1.8
v 1.2 4.6 -1.8
v 1.3 4.6 -1.8
v 1.4 4.6 -1.8
v 0.7 4.6 -1.9
v 0.8 4.6 -1.9
v 0.9 4.6 -1.9
v 1 4.6 -1.9
v 1.1 4.6 -1.9
v 1.2 4.6 -1.9
v 1.3 4.6 -1.9
v 1.4 4.6 -1.9
v 0.8 4.7 -1.3
v 0.9 4.7 -1.3
v 1 4.7 -1.3
v 1.1 4.7 -1.3
v 1.2 4.7 -1.3
v 1.3 4.7 -1.3
v 0.9 4.7 -1.4
v 1 4.7 -1.4
v 1.1 4.7 -1.4
v 1.2 4.7 -1.4
v 1.3 4.7 -1.4
v 1.2 4.7 -1.5
v 1.3 4.7 -1.5
v 1.2 4.7 -1.6
v 1.3 4.7 -1.6
v 0.9 4.7 -1.7
v 1 4.7 -1.7
v 1.1 4.7 -1.7
v 1.2 4.7 -1.7
v 1.3 4.7 -1.7
v 0.8 4.7 -1.8
v 0.9 4.7 -1.8
v 1 4.7 -1.8
v 1.1 4.7 -1.8
v 1.2 4.7 -1.8
v 1.3 4.7 -1.8
v 0.9 4.8 -1.4
v 1 4.8 -1.4
v 1.1 4.8 -1.4
v 1.2 4.8 -1.4
v 1 4.8 -1.5
v 1.1 4.8 -1.5
v 1.2 4.8 -1.5
v 1 4.8 -1.6
v 1.1 4.8 -1.6
v 1.2 4.8 -1.6
v 0.9 4.8 -1.7
v 1 4.8 -1.7
v 1.1 4.8 -1.7
v 1.2 4.8 -1.7
v 1 4.9 -1.5
v 1.1 4.9 -1.5
v 1 4.9 -1.6
v 1.1 4.9 -1.6

# faces
f 3/1/1 2/1/1 1/1/1
f 4/1/1 2/1/1 3/1/1
f 7/1/1 6/1/1 5/1/1
f 8/1/1 6/1/1 7/1/1
f 11/1/1 10/1/1 9/1/1
f 12/1/1 10/1/1 11/1/1
f 15/1/1 14/1/1 13/1/1
f 16/1/1 14/1/1 15/1/1
f 21/1/1 18/1/1 17/1/1
f 22/1/1 20/1/1 19/1/1
f 23/1/1 21/1/1 17/1/1
f 23/1/1 22/1/1 21/1/1
f 24/1/1 20/1/1 22/1/1
f 24/1/1 22/1/1 23/1/1
f 25/2/1 24/2/1 23/2/1
f 26/2/1 24/2/1 25/2/1
f 29/2/1 28/2/1 27/2/1
f 30/2/1 28/2/1 29/2/1
f 33/2/1 32/2/1 31/2/1
f 34/2/1 32/2/1 33/2/1
f 39/1/1 36/1/1 35/1/1
f 42/1/1 38/1/1 37/1/1
f 43/1/1 40/1/1 39/1/1
f 43/1/1 39/1/1 35/1/1
f 44/1/1 40/1/1 43/1/1
f 45/1/1 40/1/1 44/1/1
f 48/1/1 42/1/1 41/1/1
f 49/1/1 38/1/1 42/1/1
f 49/1/1 42/1/1 48/1/1
f 50/1/1 38/1/1 49/1/1
f 51/1/1 46/1/1 45/1/1
f 51/1/1 45/1/1 44/1/1
f 52/1/1 46/1/1 51/1/1
f 53/1/1 48/1/1 47/1/1
f 53/1/1 49/1/1 48/1/1
f 54/1/1 49/1/1 53/1/1
f 55/1/1 46/1/1 52/1/1
f 56/1/1 46/1/1 55/1/1
f 57/1/1 53/1/1 47/1/1
f 58/1/1 53/1/1 57/1/1
f 59/1/1 46/1/1 56/1/1
f 60/1/1 46/1/1 59/1/1
f 61/1/1 57/1/1 47/1/1
f 62/1/1 57/1/1 61/1/1
f 65/1/1 64/1/1 63/1/1
f 66/1/1 64/1/1 65/1/1
f 69/1/1 68/1/1 67/1/1
f 70/1/1 68/1/1 69/1/1
f 73/1/1 72/1/1 71/1/1
f 74/1/1 72/1/1 73/1/1
f 75/1/2 76/1/2 77/1/2
f 77/1/2 76/1/2 78/1/2
f 79/1/2 80/1/2 81/1/2
f 81/1/2 80/1/2 82/1/2
f 83/1/2 84/1/2 87/1/2
f 85/1/2 86/1/2 90/1/2
f 87/1/2 88/1/2 91/1/2
f 83/1/2 87/1/2 91/1/2
f 91/1/2 88/1/2 92/1/2
f 92/1/2 88/1/2 93/1/2
f 89/1/2 90/1/2 96/1/2
f 90/1/2 86/1/2 97/1/2
f 96/1/2 90/1/2 97/1/2
f 97/1/2 86/1/2 98/1/2
f 93/1/2 94/1/2 99/1/2
f 92/1/2 93/1/2 99/1/2
f 99/1/2 94/1/2 100/1/2
f 95/1/2 96/1/2 101/1/2
f 96/1/2 97/1/2 101/1/2
f 101/1/2 97/1/2 102/1/2
f 100/1/2 94/1/2 103/1/2
f 103/1/2 94/1/2 104/1/2
f 95/1/2 101/1/2 105/1/2
f 105/1/2 101/1/2 106/1/2
f 104/1/2 94/1/2 107/1/2
f 107/1/2 94/1/2 108/1/2
f 95/1/2 105/1/2 109/1/2
f 109/1/2 105/1/2 110/1/2
f 111/1/2 112/1/2 113/1/2
f 113/1/2 112/1/2 114/1/2
f 115/2/2 116/2/2 119/2/2
f 116/1/2 117/1/2 120/1/2
f 119/2/2 116/2/2 120/2/2
f 117/2/2 118/2/2 121/2/2
f 120/1/2 117/1/2 121/1/2
f 121/2/2 118/2/2 122/2/2
f 123/2/2 124/2/2 129/2/2
f 124/1/2 125/1/2 130/1/2
f 129/2/2 124/2/2 130/2/2
f 125/2/2 126/2/2 131/2/2
f 130/1/2 125/1/2 131/1/2
f 126/1/2 127/1/2 132/1/2
f 131/2/2 126/2/2 132/2/2
f 127/2/2 128/2/2 133/2/2
f 132/1/2 127/1/2 133/1/2
f 133/2/2 128/2/2 134/2/2
f 135/1/2 136/1/2 139/1/2
f 137/1/2 138/1/2 140/1/2
f 135/1/2 139/1/2 141/1/2
f 139/1/2 140/1/2 141/1/2
f 141/1/2 140/1/2 142/1/2
f 142/1/2 140/1/2 143/1/2
f 143/1/2 140/1/2 144/1/2
f 140/1/2 138/1/2 145/1/2
f 144/1/2 140/1/2 145/1/2
f 145/1/2 138/1/2 146/1/2
f 146/1/2 138/1/2 147/1/2
f 147/1/2 138/1/2 148/1/2
f 141/2/2 142/2/2 149/2/2
f 142/1/2 143/1/2 150/1/2
f 149/2/2 142/2/2 150/2/2
f 143/2/2 144/2/2 151/2/2
f 150/1/2 143/1/2 151/1/2
f 144/1/2 145/1/2 152/1/2
f 151/2/2 144/2/2 152/2/2
f 145/2/2 146/2/2 153/2/2
f 152/1/2 145/1/2 153/1/2
f 146/1/2 147/1/2 154/1/2
f 153/2/2 146/2/2 154/2/2
f 147/2/2 148/2/2 155/2/2
f 154/1/2 147/1/2 155/1/2
f 155/2/2 148/2/2 156/2/2
f 157/1/2 158/1/2 159/1/2
f 159/1/2 158/1/2 160/1/2
f 161/1/2 162/1/2 163/1/2
f 163/1/2 162/1/2 164/1/2
f 165/1/2 166/1/2 167/1/2
f 167/1/2 166/1/2 168/1/2
f 169/1/2 170/1/2 171/1/2
f 171/1/2 170/1/2 172/1/2
f 175/1/3 174/1/3 173/1/3
f 176/1/3 174/1/3 175/1/3
f 179/1/3 178/1/3 177/1/3
f 180/1/3 178/1/3 179/1/3
f 183/1/3 182/1/3 181/1/3
f 184/1/3 182/1/3 183/1/3
f 187/1/3 186/1/3 185/1/3
f 188/1/3 186/1/3 187/1/3
f 192/1/3 190/1/3 189/1/3
f 192/2/3 191/2/3 190/2/3
f 193/2/3 191/2/3 192/2/3
f 194/1/3 192/1/3 189/1/3
f 194/1/3 193/1/3 192/1/3
f 195/1/3 193/1/3 194/1/3
f 196/1/3 194/1/3 189/1/3
f 197/1/3 194/1/3 196/1/3
f 198/2/3 195/2/3 194/2/3
f 198/1/3 194/1/3 197/1/3
f 199/2/3 195/2/3 198/2/3
f 201/1/3 198/1/3 197/1/3
f 201/1/3 199/1/3 198/1/3
f 202/1/3 199/1/3 201/1/3
f 203/1/3 199/1/3 202/1/3
f 204/1/3 201/1/3 200/1/3
f 204/1/3 202/1/3 201/1/3
f 204/2/3 203/2/3 202/2/3
f 205/2/3 203/2/3 204/2/3
f 206/1/3 204/1/3 200/1/3
f 206/1/3 205/1/3 204/1/3
f 207/1/3 205/1/3 206/1/3
f 208/1/3 206/1/3 200/1/3
f 209/2/3 207/2/3 206/2/3
f 209/1/3 206/1/3 208/1/3
f 210/2/3 207/2/3 209/2/3
f 213/2/3 212/2/3 211/2/3
f 214/2/3 212/2/3 213/2/3
f 215/1/3 214/1/3 213/1/3
f 216/1/3 214/1/3 215/1/3
f 217/2/3 216/2/3 215/2/3
f 218/2/3 216/2/3 217/2/3
f 219/1/3 218/1/3 217/1/3
f 220/1/3 218/1/3 219/1/3
f 221/2/3 220/2/3 219/2/3
f 222/2/3 220/2/3 221/2/3
f 225/2/3 224/2/3 223/2/3
f 226/2/3 224/2/3 225/2/3
f 227/1/3 226/1/3 225/1/3
f 228/1/3 226/1/3 227/1/3
f 229/2/3 228/2/3 227/2/3
f 230/2/3 228/2/3 229/2/3
f 233/1/3 232/1/3 231/1/3
f 234/1/3 232/1/3 233/1/3
f 235/1/3 232/1/3 234/1/3
f 237/1/3 236/1/3 235/1/3
f 237/1/3 235/1/3 234/1/3
f 238/1/3 236/1/3 237/1/3
f 239/1/3 236/1/3 238/1/3
f 241/1/3 240/1/3 239/1/3
f 241/1/3 239/1/3 238/1/3
f 243/1/3 241/1/3 238/1/3
f 243/1/3 242/1/3 241/1/3
f 244/1/3 242/1/3 243/1/3
f 247/1/3 246/1/3 245/1/3
f 248/1/3 246/1/3 247/1/3
f 251/1/3 250/1/3 249/1/3
f 252/1/3 250/1/3 251/1/3
f 254/1/3 251/1/3 249/1/3
f 255/1/3 251/1/3 254/1/3
f 256/1/3 251/1/3 255/1/3
f 258/1/3 254/1/3 253/1/3
f 258/1/3 255/1/3 254/1/3
f 259/1/3 255/1/3 258/1/3
f 260/1/3 255/1/3 259/1/3
f 261/1/3 258/1/3 257/1/3
f 261/1/3 259/1/3 258/1/3
f 262/1/3 259/1/3 261/1/3
f 265/1/3 264/1/3 263/1/3
f 266/1/3 264/1/3 265/1/3
f 269/1/3 268/1/3 267/1/3
f 270/1/3 268/1/3 269/1/3
f 271/1/4 272/1/4 273/1/4
f 273/1/4 272/1/4 274/1/4
f 275/1/4 276/1/4 277/1/4
f 277/1/4 276/1/4 278/1/4
f 279/1/4 280/1/4 281/1/4
f 281/1/4 280/1/4 282/1/4
f 282/1/4 280/1/4 283/1/4
f 283/1/4 284/1/4 285/1/4
f 282/1/4 283/1/4 285/1/4
f 285/1/4 284/1/4 286/1/4
f 286/1/4 284/1/4 287/1/4
f 287/1/4 288/1/4 289/1/4
f 286/1/4 287/1/4 289/1/4
f 286/1/4 289/1/4 291/1/4
f 289/1/4 290/1/4 291/1/4
f 291/1/4 290/1/4 292/1/4
f 293/1/4 294/1/4 295/1/4
f 295/1/4 294/1/4 296/1/4
f 297/1/4 298/1/4 299/1/4
f 299/1/4 298/1/4 300/1/4
f 297/1/4 299/1/4 302/1/4
f 302/1/4 299/1/4 303/1/4
f 303/1/4 299/1/4 304/1/4
f 301/1/4 302/1/4 306/1/4
f 302/1/4 303/1/4 306/1/4
f 306/1/4 303/1/4 307/1/4
f 307/1/4 303/1/4 308/1/4
f 305/1/4 306/1/4 309/1/4
f 306/1/4 307/1/4 309/1/4
f 309/1/4 307/1/4 310/1/4
f 311/2/4 312/2/4 313/2/4
f 313/2/4 312/2/4 314/2/4
f 313/1/4 314/1/4 315/1/4
f 315/1/4 314/1/4 316/1/4
f 315/2/4 316/2/4 317/2/4
f 317/2/4 316/2/4 318/2/4
f 319/2/4 320/2/4 321/2/4
f 321/2/4 320/2/4 322/2/4
f 321/1/4 322/1/4 323/1/4
f 323/1/4 322/1/4 324/1/4
f 323/2/4 324/2/4 325/2/4
f 325/2/4 324/2/4 326/2/4
f 325/1/4 326/1/4 327/1/4
f 327/1/4 326/1/4 328/1/4
f 327/2/4 328/2/4 329/2/4
f 329/2/4 328/2/4 330/2/4
f 331/1/4 332/1/4 334/1/4
f 332/2/4 333/2/4 334/2/4
f 334/2/4 333/2/4 335/2/4
f 331/1/4 334/1/4 336/1/4
f 334/1/4 335/1/4 336/1/4
f 336/1/4 335/1/4 337/1/4
f 331/1/4 336/1/4 338/1/4
f 338/1/4 336/1/4 339/1/4
f 336/2/4 337/2/4 340/2/4
f 339/1/4 336/1/4 340/1/4
f 340/2/4 337/2/4 341/2/4
f 339/1/4 340/1/4 343/1/4
f 340/1/4 341/1/4 343/1/4
f 343/1/4 341/1/4 344/1/4
f 344/1/4 341/1/4 345/1/4
f 342/1/4 343/1/4 346/1/4
f 343/1/4 344/1/4 346/1/4
f 344/2/4 345/2/4 346/2/4
f 346/2/4 345/2/4 347/2/4
f 342/1/4 346/1/4 348/1/4
f 346/1/4 347/1/4 348/1/4
f 348/1/4 347/1/4 349/1/4
f 342/1/4 348/1/4 350/1/4
f 348/2/4 349/2/4 351/2/4
f 350/1/4 348/1/4 351/1/4
f 351/2/4 349/2/4 352/2/4
f 353/1/4 354/1/4 355/1/4
f 355/1/4 354/1/4 356/1/4
f 357/1/4 358/1/4 359/1/4
f 359/1/4 358/1/4 360/1/4
f 361/1/4 362/1/4 363/1/4
f 363/1/4 362/1/4 364/1/4
f 365/1/4 366/1/4 367/1/4
f 367/1/4 366/1/4 368/1/4
f 371/1/5 370/1/5 369/1/5
f 372/1/5 370/1/5 371/1/5
f 377/1/5 374/1/5 373/1/5
f 378/1/5 374/1/5 377/1/5
f 379/1/5 376/1/5 375/1/5
f 380/1/5 376/1/5 379/1/5
f 383/1/5 382/1/5 381/1/5
f 384/1/5 382/1/5 383/1/5
f 387/1/5 386/1/5 385/1/5
f 388/1/5 386/1/5 387/1/5
f 393/1/5 390/1/5 389/1/5
f 394/1/5 390/1/5 393/1/5
f 395/1/5 392/1/5 391/1/5
f 396/1/5 392/1/5 395/1/5
f 399/1/5 398/1/5 397/1/5
f 400/1/5 398/1/5 399/1/5
f 404/1/5 402/1/5 401/1/5
f 405/1/5 402/1/5 404/1/5
f 407/1/5 404/1/5 403/1/5
f 407/1/5 406/1/5 405/1/5
f 407/1/5 405/1/5 404/1/5
f 408/1/5 406/1/5 407/1/5
f 410/1/5 407/1/5 403/1/5
f 411/1/5 406/1/5 408/1/5
f 413/1/5 410/1/5 409/1/5
f 414/1/5 407/1/5 410/1/5
f 414/1/5 410/1/5 413/1/5
f 415/1/5 412/1/5 411/1/5
f 415/1/5 411/1/5 408/1/5
f 416/1/5 412/1/5 415/1/5
f 417/1/5 407/1/5 414/1/5
f 417/3/5 408/3/5 407/3/5
f 418/1/5 415/1/5 408/1/5
f 418/3/5 408/3/5 417/3/5
f 419/1/5 417/1/5 414/1/5
f 419/1/5 418/1/5 417/1/5
f 420/1/5 418/1/5 419/1/5
f 421/1/5 418/1/5 420/1/5
f 422/1/5 415/1/5 418/1/5
f 422/1/5 418/1/5 421/1/5
f 423/1/5 421/1/5 420/1/5
f 424/1/5 421/1/5 423/1/5
f 425/1/6 426/1/6 427/1/6
f 427/1/6 426/1/6 428/1/6
f 429/1/6 430/1/6 433/1/6
f 433/1/6 430/1/6 434/1/6
f 431/1/6 432/1/6 435/1/6
f 435/1/6 432/1/6 436/1/6
f 437/1/6 438/1/6 439/1/6
f 439/1/6 438/1/6 440/1/6
f 441/1/6 442/1/6 443/1/6
f 443/1/6 442/1/6 444/1/6
f 445/1/6 446/1/6 449/1/6
f 449/1/6 446/1/6 450/1/6
f 447/1/6 448/1/6 451/1/6
f 451/1/6 448/1/6 452/1/6
f 453/1/6 454/1/6 455/1/6
f 455/1/6 454/1/6 456/1/6
f 457/1/6 458/1/6 459/1/6
f 459/1/6 458/1/6 460/1/6
f 461/1/6 462/1/6 465/1/6
f 465/1/6 462/1/6 466/1/6
f 463/1/6 464/1/6 467/1/6
f 467/1/6 464/1/6 468/1/6
f 469/1/6 470/1/6 471/1/6
f 471/1/6 470/1/6 472/1/6
f 473/1/6 474/1/6 475/1/6
f 475/1/6 474/1/6 476/1/6
f 477/1/6 478/1/6 481/1/6
f 481/1/6 478/1/6 482/1/6
f 479/1/6 480/1/6 483/1/6
f 483/1/6 480/1/6 484/1/6
f 485/1/6 486/1/6 487/1/6
f 487/1/6 486/1/6 488/1/6
f 489/2/6 490/2/6 497/2/6
f 490/1/6 491/1/6 497/1/6
f 491/2/6 492/2/6 498/2/6
f 497/1/6 491/1/6 498/1/6
f 492/1/6 493/1/6 499/1/6
f 498/2/6 492/2/6 499/2/6
f 493/2/6 494/2/6 500/2/6
f 499/1/6 493/1/6 500/1/6
f 494/1/6 495/1/6 501/1/6
f 500/2/6 494/2/6 501/2/6
f 495/2/6 496/2/6 502/2/6
f 501/1/6 495/1/6 502/1/6
f 502/2/6 496/2/6 503/2/6
f 502/1/6 503/1/6 504/1/6
f 504/1/6 503/1/6 505/1/6
f 504/2/6 505/2/6 506/2/6
f 506/2/6 505/2/6 507/2/6
f 506/1/6 507/1/6 508/1/6
f 508/1/6 507/1/6 509/1/6
f 508/2/6 509/2/6 510/2/6
f 510/2/6 509/2/6 511/2/6
f 489/2/6 497/2/6 512/2/6
f 510/1/6 511/1/6 517/1/6
f 517/1/6 511/1/6 518/1/6
f 489/2/6 512/2/6 519/2/6
f 512/1/6 513/1/6 520/1/6
f 519/2/6 512/2/6 520/2/6
f 513/2/6 514/2/6 521/2/6
f 520/1/6 513/1/6 521/1/6
f 514/1/6 515/1/6 522/1/6
f 521/2/6 514/2/6 522/2/6
f 515/2/6 516/2/6 523/2/6
f 522/1/6 515/1/6 523/1/6
f 516/1/6 517/1/6 524/1/6
f 523/2/6 516/2/6 524/2/6
f 517/2/6 518/2/6 525/2/6
f 524/1/6 517/1/6 525/1/6
f 525/2/6 518/2/6 526/2/6
f 527/2/6 528/2/6 533/2/6
f 528/1/6 529/1/6 533/1/6
f 529/2/6 530/2/6 534/2/6
f 533/1/6 529/1/6 534/1/6
f 530/1/6 531/1/6 535/1/6
f 534/2/6 530/2/6 535/2/6
f 531/2/6 532/2/6 536/2/6
f 535/1/6 531/1/6 536/1/6
f 536/2/6 532/2/6 537/2/6
f 536/1/6 537/1/6 538/1/6
f 538/1/6 537/1/6 539/1/6
f 538/2/6 539/2/6 540/2/6
f 540/2/6 539/2/6 541/2/6
f 527/2/6 533/2/6 542/2/6
f 540/1/6 541/1/6 545/1/6
f 545/1/6 541/1/6 546/1/6
f 527/2/6 542/2/6 547/2/6
f 542/1/6 543/1/6 548/1/6
f 547/2/6 542/2/6 548/2/6
f 543/2/6 544/2/6 549/2/6
f 548/1/6 543/1/6 549/1/6
f 544/1/6 545/1/6 550/1/6
f 549/2/6 544/2/6 550/2/6
f 545/2/6 546/2/6 551/2/6
f 550/1/6 545/1/6 551/1/6
f 551/2/6 546/2/6 552/2/6
f 553/2/6 554/2/6 557/2/6
f 554/1/6 555/1/6 557/1/6
f 555/2/6 556/2/6 558/2/6
f 557/1/6 555/1/6 558/1/6
f 558/2/6 556/2/6 559/2/6
f 553/2/6 557/2/6 560/2/6
f 558/1/6 559/1/6 561/1/6
f 561/1/6 559/1/6 562/1/6
f 553/2/6 560/2/6 563/2/6
f 560/1/6 561/1/6 564/1/6
f 563/2/6 560/2/6 564/2/6
f 561/2/6 562/2/6 565/2/6
f 564/1/6 561/1/6 565/1/6
f 565/2/6 562/2/6 566/2/6
f 567/1/6 568/1/6 569/1/6
f 569/1/6 568/1/6 570/1/6
